<?xml version="1.0" standalone="no"?>
<!DOCTYPE svg PUBLIC "-//W3C//DTD SVG 20010904//EN"
 "http://www.w3.org/TR/2001/REC-SVG-20010904/DTD/svg10.dtd">
<svg version="1.0" xmlns="http://www.w3.org/2000/svg"
 width="900.000000pt" height="1200.000000pt" viewBox="0 0 900.000000 1200.000000"
 preserveAspectRatio="xMidYMid meet">
<g transform="translate(0.000000,1200.000000) scale(0.100000,-0.100000)"
fill="#454545" stroke="none">
<path d="M4170 10975 c-35 -13 -72 -34 -82 -47 -26 -34 -33 -76 -15 -96 8 -9
18 -27 21 -39 4 -13 11 -23 14 -23 4 0 15 -15 25 -33 17 -32 17 -34 -3 -78
-11 -24 -38 -73 -61 -109 -22 -36 -44 -74 -48 -85 -10 -23 -108 -169 -151
-225 -40 -52 -134 -224 -153 -282 -13 -38 13 -21 113 73 83 79 122 108 188
139 46 22 104 45 130 52 26 6 61 17 79 24 17 8 42 14 55 14 13 0 28 4 34 10 5
5 36 19 68 30 48 16 85 20 195 20 l136 1 55 37 c59 40 93 91 105 157 9 50 29
90 66 133 16 18 29 37 29 42 0 9 -46 25 -101 34 -79 14 -118 42 -198 146 -21
28 -29 31 -68 29 -34 -2 -47 1 -54 14 -5 9 -26 19 -47 23 -20 4 -60 20 -88 35
-66 38 -150 39 -244 4z"/>
<path d="M5405 10301 c-16 -3 -50 -16 -75 -28 -25 -12 -61 -25 -80 -28 -19 -4
-39 -11 -45 -15 -5 -4 -23 -10 -39 -14 -16 -4 -58 -20 -92 -37 -35 -16 -67
-29 -72 -29 -5 0 -23 -7 -39 -15 -33 -16 -157 -51 -238 -67 -54 -10 -133 -35
-150 -47 -5 -4 -37 -17 -70 -30 -33 -12 -69 -27 -80 -32 -11 -5 -40 -13 -65
-18 -120 -25 -272 -73 -365 -115 -27 -13 -86 -36 -130 -51 -44 -15 -120 -45
-170 -67 -49 -22 -108 -46 -130 -54 -22 -8 -49 -19 -60 -23 -84 -37 -134 -45
-329 -49 -190 -4 -202 -5 -238 -28 -21 -13 -38 -31 -38 -40 0 -32 33 -70 106
-124 41 -30 81 -65 90 -78 9 -13 31 -41 51 -63 34 -38 38 -39 99 -39 61 0 179
22 212 40 74 38 111 51 156 53 57 2 52 11 45 -88 -4 -39 43 -137 92 -196 22
-25 39 -50 39 -55 0 -5 23 -36 50 -69 27 -33 50 -63 50 -68 0 -12 -42 -46 -58
-47 -11 0 -41 -12 -127 -50 -11 -5 -42 -18 -70 -30 -27 -12 -59 -25 -70 -30
-11 -5 -45 -19 -75 -31 -30 -12 -68 -27 -85 -34 -16 -7 -73 -27 -125 -44 -52
-17 -104 -35 -115 -40 -11 -4 -37 -16 -58 -25 -21 -9 -46 -16 -55 -16 -10 0
-28 -7 -40 -16 -17 -12 -63 -18 -177 -24 -85 -4 -159 -11 -164 -15 -6 -3 -11
-15 -11 -25 0 -11 -5 -29 -11 -42 -7 -17 -6 -32 5 -58 22 -49 43 -72 111 -118
33 -22 78 -59 100 -81 l40 -41 60 6 c57 6 189 61 267 112 42 27 230 153 260
173 15 11 32 19 37 19 6 0 33 14 59 30 27 17 55 30 62 30 6 0 32 14 57 30 24
17 48 30 53 30 5 0 25 16 45 36 21 21 42 33 50 30 8 -3 27 1 42 8 16 8 48 24
73 36 25 11 74 37 110 55 36 19 81 38 100 41 33 6 146 53 180 75 8 5 20 11 25
13 6 1 26 9 45 16 19 6 45 12 56 11 12 0 27 6 34 14 7 8 18 15 24 15 23 0 125
47 159 73 21 16 48 27 67 27 17 0 49 12 73 27 33 21 55 27 104 28 35 0 68 6
75 13 7 7 23 12 36 12 23 0 65 15 122 45 14 7 40 15 59 19 19 3 50 18 68 32
33 25 180 64 244 64 15 0 43 7 62 15 45 19 115 19 136 2 22 -19 97 -47 126
-47 13 0 26 -4 29 -9 17 -27 196 -56 196 -32 0 5 -4 11 -10 13 -5 2 -6 9 -1
17 8 12 12 12 26 -2 20 -21 58 -22 75 -2 7 8 20 15 29 15 21 0 70 45 81 75 27
70 -24 235 -73 235 -12 1 -33 7 -47 15 -16 9 -55 14 -105 15 -44 0 -112 7
-150 15 -39 8 -91 15 -116 15 -54 0 -130 -24 -142 -45 -4 -9 -22 -15 -41 -15
-23 0 -50 -12 -82 -35 -27 -19 -56 -38 -64 -42 -8 -3 -34 -14 -57 -24 -23 -11
-51 -19 -62 -19 -11 0 -22 -4 -25 -9 -3 -4 -20 -11 -38 -15 -18 -3 -46 -13
-63 -21 -71 -34 -145 -65 -210 -88 -109 -40 -126 -45 -190 -62 -98 -26 -169
-49 -182 -58 -14 -10 -90 -14 -99 -5 -11 11 5 26 36 33 17 4 30 10 30 15 0 5
10 12 22 16 12 3 40 19 61 35 22 16 61 36 86 43 72 22 125 52 172 96 24 22 80
58 126 81 91 45 167 117 178 169 4 16 11 32 16 35 14 9 11 48 -7 91 -15 36
-46 70 -123 135 -39 34 -39 43 2 66 30 17 54 25 194 67 60 19 122 20 191 5 47
-10 53 -8 99 20 28 17 57 31 65 31 9 0 21 7 28 15 7 8 18 15 24 15 6 0 18 10
25 23 18 28 51 135 51 165 0 27 -33 42 -100 47 -25 1 -72 8 -105 14 -63 12
-170 13 -220 2z m-775 -620 c5 -11 10 -29 10 -39 0 -22 -125 -144 -225 -220
-33 -25 -70 -56 -82 -67 -13 -12 -55 -38 -96 -58 -60 -31 -83 -37 -136 -37
-56 0 -66 3 -92 29 -35 35 -37 66 -8 123 23 45 52 74 84 83 35 10 100 39 105
47 6 8 118 50 250 93 47 16 99 37 115 47 39 23 62 23 75 -1z m43 -179 c-4 -48
-103 -206 -191 -303 -19 -21 -44 -52 -58 -70 -28 -38 -42 -49 -66 -49 -27 0
-22 33 12 88 17 27 30 55 30 63 0 8 21 37 46 64 24 28 48 55 52 60 80 109 152
187 167 182 5 -3 9 -18 8 -35z"/>
<path d="M3889 8423 c-76 -80 -121 -156 -154 -263 -29 -94 -46 -337 -53 -775
-6 -326 -11 -425 -21 -444 -17 -31 -9 -181 12 -232 22 -50 47 -132 47 -149 0
-41 72 -142 130 -183 32 -22 99 -22 172 1 79 25 95 42 102 110 11 91 28 162
40 162 6 0 26 -13 43 -29 29 -25 252 -140 359 -186 54 -22 174 -10 245 25 9 5
53 4 98 -2 94 -12 151 0 175 37 8 12 23 30 33 40 20 21 33 41 62 104 l21 44
-26 46 c-27 46 -33 71 -54 216 -6 44 -17 96 -25 115 -12 29 -26 270 -26 430 0
40 19 171 30 215 6 22 13 77 16 123 3 46 10 93 16 105 7 13 12 92 13 211 1
253 -6 271 -123 311 -24 8 -63 15 -88 15 -57 0 -164 -26 -228 -55 -28 -13 -63
-27 -78 -30 -65 -17 -285 -140 -351 -197 -6 -5 -42 -31 -80 -58 -56 -41 -76
-50 -111 -50 -67 0 -100 -22 -119 -80 -9 -27 -16 -55 -16 -62 0 -15 59 -58 80
-58 7 0 35 -14 61 -31 40 -25 54 -29 81 -24 62 14 95 36 116 80 24 51 161 178
235 219 58 32 158 66 193 66 29 0 71 -44 80 -85 3 -16 11 -36 18 -44 15 -19
12 -381 -3 -439 -12 -44 -31 -53 -69 -33 -75 41 -299 92 -430 98 -93 4 -109 2
-150 -18 -26 -13 -67 -30 -92 -39 -50 -17 -150 -89 -146 -105 1 -5 19 -19 38
-30 20 -11 65 -44 100 -73 34 -30 71 -60 81 -68 9 -7 17 -27 17 -42 0 -30 -27
-119 -42 -138 -5 -7 -17 -65 -28 -130 -20 -120 -36 -182 -51 -198 -14 -16 -36
12 -48 62 -15 60 -49 153 -63 169 -14 17 -29 178 -34 358 -4 147 17 493 36
606 6 30 10 80 11 110 1 60 10 119 34 224 29 128 29 125 8 125 -11 0 -51 -33
-94 -77z m875 -1172 c27 -29 32 -113 10 -158 -11 -24 -19 -63 -19 -103 -3
-113 -5 -128 -20 -143 -12 -12 -21 -13 -47 -4 -31 10 -164 69 -199 87 -9 5
-34 12 -55 16 -85 15 -115 52 -99 123 7 32 74 74 138 86 26 5 37 12 37 25 0
61 210 120 254 71z m-694 -691 c0 -11 -4 -20 -10 -20 -5 0 -10 9 -10 20 0 11
5 20 10 20 6 0 10 -9 10 -20z"/>
<path d="M3945 5699 c-33 -12 -62 -23 -64 -25 -3 -2 5 -18 17 -34 12 -16 22
-32 22 -35 0 -3 16 -27 36 -53 33 -43 36 -51 31 -97 -3 -27 -19 -80 -36 -117
-17 -36 -31 -69 -31 -72 0 -3 -18 -35 -39 -70 -22 -35 -50 -86 -62 -113 -12
-26 -24 -50 -28 -53 -12 -10 -90 -176 -119 -255 -6 -16 -16 -72 -22 -124 -6
-52 -13 -98 -16 -103 -6 -9 23 -142 37 -170 5 -10 9 -31 9 -47 0 -16 5 -42 11
-58 7 -15 15 -62 19 -103 14 -135 40 -274 62 -330 19 -48 57 -107 71 -112 7
-3 58 -3 115 0 l103 4 36 39 c21 22 43 39 51 39 7 0 31 -20 54 -45 38 -42 166
-135 269 -195 64 -38 116 -46 165 -24 40 18 82 19 99 3 10 -10 107 -12 153 -3
30 6 30 6 10 26 -14 14 -18 30 -16 61 l3 42 60 1 c33 0 77 8 98 17 31 14 37
21 37 47 0 17 -9 48 -19 68 -15 30 -18 51 -14 99 4 39 2 63 -6 67 -6 4 -11 28
-11 53 0 29 -6 53 -16 64 -15 17 -15 22 -1 51 8 18 18 74 21 123 8 107 19 121
111 149 33 11 94 32 135 48 41 16 109 36 150 43 120 22 134 27 156 51 25 26
66 48 109 58 17 4 37 13 45 20 8 8 27 16 43 20 15 4 44 22 65 40 20 18 47 36
59 40 20 6 103 105 103 123 0 4 13 22 28 38 16 17 37 53 47 82 16 45 17 55 4
84 -17 42 -76 109 -96 109 -9 0 -35 21 -59 48 -83 90 -96 100 -144 116 -69 23
-97 21 -116 -9 -16 -25 -14 -55 8 -121 23 -65 -66 -221 -187 -330 -41 -36 -75
-73 -75 -81 0 -8 -26 -40 -57 -72 -90 -88 -215 -222 -249 -265 -21 -28 -35
-38 -47 -33 -22 8 -23 74 -2 124 12 28 15 70 14 173 -3 167 -9 186 -86 253
-65 56 -303 27 -391 -49 l-37 -32 35 -15 c19 -9 56 -19 82 -22 32 -4 57 -15
78 -35 28 -26 30 -32 30 -104 0 -72 -14 -192 -30 -246 -9 -34 -32 -31 -50 6
-8 18 -28 39 -45 47 -55 28 -187 87 -194 87 -5 0 -23 7 -41 16 -26 14 -50 15
-134 10 -55 -4 -114 -8 -129 -8 -18 -1 -44 -15 -75 -43 l-47 -42 20 -38 c35
-67 103 -135 135 -135 20 0 37 -11 60 -37 29 -33 32 -41 27 -84 -3 -26 -10
-56 -16 -66 -21 -37 -70 -150 -77 -177 -3 -15 -13 -30 -20 -33 -20 -7 -44 15
-44 41 0 22 -51 125 -80 163 -10 13 -49 51 -86 85 -75 67 -93 95 -118 179 -29
99 -16 207 35 301 8 16 48 65 89 111 73 81 129 127 154 127 6 0 38 27 71 60
33 33 67 60 76 60 9 0 33 7 52 15 20 8 56 15 79 15 24 0 73 7 110 16 62 15 71
21 107 68 33 43 42 65 56 139 23 125 18 140 -58 168 -34 12 -82 34 -107 47
-25 13 -67 32 -95 43 -27 11 -59 23 -70 28 -162 70 -200 81 -285 80 -30 0 -82
-9 -115 -20z m769 -1501 c8 -12 12 -26 8 -32 -8 -13 -32 -142 -39 -211 -3 -27
-10 -56 -15 -62 -14 -17 -69 -16 -115 2 -21 8 -58 19 -83 24 -154 33 -175 40
-198 66 l-23 27 29 52 c32 56 108 121 155 130 16 3 74 6 128 6 54 0 101 4 104
10 10 17 33 11 49 -12z"/>
<path d="M1255 5581 c-3 -5 -19 -12 -35 -16 -17 -4 -30 -11 -30 -16 0 -5 -20
-9 -44 -9 -35 0 -51 -6 -73 -26 -15 -14 -38 -30 -50 -35 -13 -5 -23 -13 -23
-19 0 -16 30 -12 36 5 11 29 34 16 34 -18 0 -39 -37 -81 -63 -72 -16 7 -21 -3
-31 -65 -6 -32 -4 -35 20 -37 16 0 36 -12 49 -29 30 -38 55 -27 55 24 0 23 -6
45 -15 52 -19 16 -19 69 0 94 8 11 15 29 15 39 0 27 47 69 73 65 13 -2 24 -13
28 -28 4 -14 7 -20 8 -13 1 6 21 32 46 56 25 25 45 48 45 51 0 10 -38 7 -45
-3z"/>
<path d="M1345 5435 c-28 -81 -64 -94 -125 -45 l-40 32 0 -28 c0 -19 13 -40
45 -71 41 -39 50 -43 94 -43 27 0 56 -3 64 -6 47 -18 64 90 18 113 -14 6 -30
24 -37 40 -11 26 -12 26 -19 8z"/>
<path d="M2642 5006 c-24 -6 -48 -19 -53 -28 -5 -9 -23 -19 -39 -23 -16 -4
-32 -10 -35 -15 -2 -4 18 -32 46 -61 28 -30 58 -65 67 -79 9 -14 36 -49 61
-78 l44 -53 -6 -88 c-3 -48 -13 -112 -22 -142 -26 -83 -73 -222 -86 -254 -32
-77 -49 -129 -49 -148 0 -13 -4 -27 -10 -33 -5 -5 -14 -49 -19 -97 -6 -63 -16
-103 -35 -139 l-27 -51 22 -66 c26 -77 40 -101 94 -159 22 -24 42 -48 43 -53
10 -27 90 -101 130 -121 36 -17 62 -21 120 -20 41 1 81 7 88 13 8 6 29 19 47
29 20 11 43 37 60 70 16 29 40 71 54 94 15 22 44 74 64 115 21 41 47 84 59 96
11 12 20 26 20 32 0 17 71 145 101 184 16 20 29 40 29 43 0 4 27 48 60 98 32
50 57 95 54 99 -4 8 -293 -180 -324 -211 -9 -9 -44 -30 -66 -39 -11 -5 -50
-27 -85 -48 -90 -55 -213 -103 -265 -103 -47 0 -61 11 -100 71 -33 54 -34 158
-1 208 12 19 27 43 33 53 6 11 20 29 30 41 11 12 41 54 67 92 92 134 108 154
147 188 37 31 123 65 249 97 55 14 97 45 109 79 11 31 32 160 32 198 0 44 -64
95 -153 122 -42 12 -79 26 -82 31 -3 5 -31 11 -63 15 -31 3 -73 12 -92 19 -85
33 -240 43 -318 22z"/>
<path d="M1150 4773 c-15 -11 -43 -18 -70 -18 -42 0 -45 -2 -42 -25 2 -14 10
-38 17 -55 31 -70 29 -82 -17 -102 -35 -16 -36 -40 -3 -55 22 -10 27 -8 46 15
24 32 45 35 52 7 3 -12 14 -20 25 -20 12 0 23 -4 27 -9 7 -13 125 -91 136 -91
5 0 16 11 25 25 16 24 15 28 -9 78 -14 28 -28 60 -31 70 -6 19 -41 23 -51 6
-4 -5 1 -19 10 -29 18 -20 14 -50 -6 -50 -6 0 -27 14 -46 30 -18 17 -38 30
-43 30 -6 0 -10 9 -10 20 0 13 19 31 55 54 52 34 85 81 85 122 0 22 -119 19
-150 -3z m41 -43 c25 -14 24 -22 -7 -54 -38 -37 -71 -34 -89 7 -9 22 -10 36
-3 45 13 15 72 16 99 2z"/>
<path d="M1070 4461 c-18 -35 -11 -49 28 -58 33 -8 37 -12 34 -37 -6 -58 5
-59 59 -5 57 58 54 69 -18 69 -54 0 -73 8 -73 31 0 25 -16 24 -30 0z"/>
<path d="M5280 4341 c0 -6 -14 -18 -30 -28 -17 -9 -29 -21 -28 -25 2 -4 44
-49 93 -100 50 -51 110 -118 134 -147 51 -65 50 -87 -3 -160 -33 -44 -172
-185 -266 -270 l-45 -41 31 0 c16 0 34 4 40 9 24 24 198 61 316 68 85 5 100 9
119 29 26 27 44 30 56 10 10 -18 113 -53 183 -62 30 -4 67 -13 82 -20 19 -10
46 -12 90 -8 72 8 128 32 150 66 22 34 29 107 13 143 -72 162 -95 192 -186
239 -30 16 -72 41 -93 57 -22 16 -44 29 -49 29 -4 0 -23 12 -42 26 -18 14 -78
41 -132 60 -54 19 -111 41 -128 48 -97 47 -134 60 -203 72 -92 16 -102 17
-102 5z"/>
<path d="M1358 3984 c-22 -17 -41 -24 -59 -20 -50 9 -97 -73 -70 -122 10 -19
-7 -92 -21 -92 -5 0 -8 -10 -8 -23 0 -25 17 -47 35 -47 17 0 122 106 130 130
6 19 44 28 58 14 18 -18 -52 -101 -112 -135 -62 -35 -72 -64 -40 -123 26 -50
46 -57 73 -27 13 14 16 28 11 54 -7 34 -4 39 45 84 50 46 100 117 100 142 0
16 -49 61 -77 72 -24 9 -32 52 -13 64 15 9 12 42 -4 48 -8 3 -29 -6 -48 -19z
m5 -60 c-1 -10 -9 -23 -18 -29 -9 -5 -29 -20 -43 -32 -27 -23 -27 -23 -4 -23
39 0 38 -28 -1 -68 -30 -29 -39 -34 -49 -24 -10 10 -9 19 5 45 12 20 15 33 8
35 -21 7 -11 26 37 74 48 48 68 55 65 22z"/>
<path d="M1140 3932 c0 -68 -62 -99 -82 -41 -8 23 -16 29 -32 27 -30 -4 -25
-49 13 -97 28 -35 30 -45 33 -126 2 -57 7 -90 15 -92 13 -5 73 72 73 93 0 8
-12 17 -26 20 -15 4 -23 12 -20 20 3 7 8 30 12 51 3 21 18 54 33 73 27 35 51
83 51 100 0 6 -16 10 -35 10 -34 0 -35 -1 -35 -38z"/>
<path d="M4210 3502 c-30 -33 -42 -115 -45 -306 -2 -104 -7 -192 -12 -197 -4
-4 -43 -17 -87 -28 -43 -11 -84 -25 -90 -30 -6 -4 -26 -9 -44 -9 -32 -1 -91
-15 -193 -47 -26 -8 -53 -15 -62 -15 -8 0 -37 -6 -63 -14 -198 -59 -327 -91
-429 -107 -82 -13 -229 -5 -299 16 -64 20 -65 19 -76 -11 -7 -18 -15 -24 -28
-20 -25 8 -61 -29 -44 -46 7 -7 12 -22 12 -34 0 -20 135 -214 159 -228 5 -3
47 -9 94 -12 84 -7 200 7 242 29 11 6 33 14 50 18 55 14 180 59 207 74 14 8
35 15 46 15 11 0 33 6 49 14 45 22 135 57 170 66 17 4 51 17 75 28 24 11 67
26 96 33 84 21 86 5 11 -93 -35 -46 -68 -88 -74 -94 -5 -6 -44 -49 -85 -95
-88 -99 -202 -221 -213 -230 -4 -3 -85 -82 -180 -175 -95 -94 -210 -201 -257
-239 -47 -37 -92 -75 -101 -84 -8 -9 -37 -34 -64 -56 -48 -40 -114 -96 -145
-125 -23 -21 -68 -59 -123 -104 -83 -66 -50 -67 148 -1 102 33 144 50 157 63
7 7 18 12 25 12 15 0 240 128 279 159 15 12 31 21 36 21 5 0 21 11 36 25 15
14 43 36 62 48 19 12 46 31 59 42 75 62 132 115 176 163 28 30 122 128 209
218 88 90 171 182 185 203 32 50 64 67 86 45 12 -12 15 -40 15 -122 0 -184
-21 -546 -33 -571 -8 -16 -12 -92 -12 -225 0 -179 2 -207 20 -246 24 -56 34
-63 62 -45 12 8 31 15 42 15 11 0 25 9 31 20 6 11 15 20 21 20 14 0 85 71 92
93 5 14 15 17 39 15 l33 -3 1 90 c4 250 13 424 23 443 14 26 14 89 0 97 -6 4
-8 14 -4 23 3 9 1 48 -5 86 -11 67 -4 207 16 326 4 19 8 89 11 155 2 66 8 124
12 128 17 17 65 -17 170 -121 68 -68 118 -127 131 -155 12 -25 28 -51 36 -58
8 -6 14 -16 14 -21 0 -18 83 -175 124 -233 23 -33 62 -94 86 -135 93 -161 306
-418 420 -508 25 -20 66 -57 92 -83 25 -26 65 -57 87 -68 68 -35 70 -53 17
-131 -25 -37 -46 -70 -46 -73 0 -10 -90 -131 -104 -139 -6 -4 -8 -8 -3 -8 9 0
85 47 107 66 8 7 30 26 48 42 24 22 47 32 90 37 31 4 62 10 67 15 6 4 51 11
100 15 50 4 96 12 104 18 7 6 75 15 150 19 128 6 138 6 164 -14 16 -11 61 -36
100 -55 40 -19 95 -52 122 -72 37 -28 64 -39 102 -44 l51 -6 24 47 c20 42 28
48 63 53 55 8 95 26 95 42 0 7 18 33 41 57 52 55 58 72 51 140 -5 51 -9 59
-62 110 -31 30 -67 74 -79 98 -12 23 -25 42 -29 42 -4 0 -32 23 -62 51 -52 47
-163 129 -176 129 -3 0 -42 22 -87 48 -84 49 -176 85 -282 108 -67 14 -126 29
-199 50 -26 8 -62 14 -78 14 -16 0 -38 5 -49 11 -11 6 -50 14 -87 19 -132 17
-265 60 -347 112 -19 12 -140 115 -175 148 -9 8 -45 40 -80 70 -76 65 -151
132 -240 216 -36 34 -96 88 -135 120 -122 101 -235 209 -235 224 0 3 19 19 42
34 35 23 46 26 61 16 14 -9 25 -7 51 10 18 11 48 20 66 20 37 0 37 21 -1 30
-46 11 4 18 61 9 74 -13 120 -4 120 21 0 15 -7 20 -29 20 -17 0 -33 5 -36 10
-9 14 -70 12 -134 -4 -107 -28 -200 -39 -216 -26 -7 6 -35 10 -61 8 l-47 -3
-24 60 c-13 32 -23 67 -23 77 0 26 -28 105 -61 175 -20 41 -50 81 -90 117 -65
60 -76 64 -99 38z"/>
<path d="M5516 3211 c-3 -5 -33 -12 -66 -16 -33 -4 -63 -11 -66 -16 -3 -5 -21
-9 -41 -9 -38 0 -97 -31 -107 -55 -7 -19 -45 -19 -52 0 -4 10 -17 14 -40 12
-30 -2 -33 -4 -27 -27 14 -59 22 -70 50 -70 113 0 235 -12 259 -25 16 -8 37
-15 46 -15 23 0 68 -21 68 -32 0 -5 12 -13 26 -18 20 -8 31 -6 51 10 14 11 34
20 45 20 10 0 30 7 43 16 14 9 32 14 40 10 16 -6 35 -47 38 -78 2 -24 9 -23
37 7 13 14 32 25 41 25 15 0 17 6 12 31 -5 25 -2 31 16 36 32 8 25 63 -9 63
-24 0 -34 16 -15 24 26 10 2 47 -41 63 -21 8 -64 17 -94 19 -30 3 -62 11 -70
19 -18 17 -135 21 -144 6z m324 -202 c0 -10 -7 -19 -15 -19 -15 0 -21 31 -9
43 11 10 24 -3 24 -24z"/>
</g>
</svg>
